<svg width="44" height="55" fill="none" xmlns="http://www.w3.org/2000/svg"><path d="M0 11.105v43.307h3.378V15.18a3.404 3.404 0 00-1.041-2.457A8.857 8.857 0 000 11.105z" fill="#000"/><path d="M0 5.578V9.22c.51.178 1.415.653 2.261 1.207.709.46 1.496 1.28 2.102 2.062.97 1.246.705 4.767.705 4.767v37.156h3.38V16.999c0-5.25-1.374-6.782-3.051-8.502C3.72 6.777 0 5.577 0 5.577z" fill="#000"/><path d="M0 .025v3.657c1.526.314 4.515 1.583 6.498 3.343.853.753 2.427 2.044 3.177 4.254.568 1.69.461 3.601.461 3.967v39.168h3.377V40.103h.003V16.592c0-3.465.488-6.77-3.38-11.051C6.268 1.261 0 .025 0 .025zM15.225 13.474v40.938h.144c7.406-.04 13.394-6.047 13.394-13.449V.025h-.145C21.216.062 15.225 6.07 15.225 13.474zM44 13.449v40.938h-.144c-7.406-.041-13.394-6.048-13.394-13.45V0h.144C38.01.037 44 6.044 44 13.449z" fill="#000"/></svg>